#!OML:ASF I:\Actors\actors\Patient Classification 1\Patient 1\Session 1\Subject1.ASF
:FULLY-SPECIFIED
:DEGREES
699
root 0.938321 17.5886 8.07542 4.6994 -3.2503 -10.1685
lowerback -1.86608 -1.88449 3.61939
upperback -2.81107 -2.49883 3.03642
thorax -1.86248 -1.28883 1.08876
lowerneck 1.47831 -11.8497 -9.38597
upperneck 18.2429 -18.5287 13.739
head 7.52196 -8.81256 4.60185
rclavicle -1.74434e-014 -2.50469e-014
rhumerus 1.88817 76.7131 -95.4963
rradius 125.032
rwrist 18.1542
rhand -25.4382 -57.3926
rfingers 7.12502
rthumb 1.08835 -447.37
lclavicle -1.74434e-014 -2.50469e-014
lhumerus -126.193 -112.089 220.075
lradius 95.1739
lwrist 47.0193
lhand 25.8396 -8.65314
lfingers 7.12502
lthumb 49.9309 12.6058
rfemur -7.57727 18.6562 27.29
rtibia 13.6402
rfoot -14.0967 -15.3446
rtoes -2.64587
lfemur 1.00284 -24.836 -7.08311
ltibia 2.05208
lfoot -11.8006 35.1816
ltoes -4.08336
700
root 0.93114 17.5887 8.0725 4.70308 -2.83107 -10.1449
lowerback -1.72525 -1.80505 3.49857
upperback -3.04895 -2.37442 2.95712
thorax -2.18403 -1.22942 1.08608
lowerneck 0.289863 -11.832 -9.15229
upperneck 18.0292 -18.4946 14.1062
head 7.67023 -8.70354 4.60805
rclavicle -5.29264e-015 9.54166e-015
rhumerus -5.23581 75.8421 -103.219
rradius 125.439
rwrist 18.0036
rhand -25.4762 -56.9472
rfingers 7.12502
rthumb 1.05165 -446.924
lclavicle -5.29264e-015 9.54166e-015
lhumerus -116.02 -111.889 211.14
lradius 95.9039
lwrist 48.0731
lhand 26.0472 -8.66058
lfingers 7.12502
lthumb 50.1209 12.4985
rfemur -7.53195 18.5506 27.2847
rtibia 13.535
rfoot -14.1281 -15.6333
rtoes -2.395
lfemur 0.82889 -25.1217 -7.03404
ltibia 2.06483
lfoot -11.6051 35.0901
ltoes -4.48104
701
root 0.922415 17.5896 8.06789 4.74454 -2.41084 -10.1728
lowerback -1.55302 -1.77638 3.41854
upperback -3.29124 -2.31675 2.89854
thorax -2.52972 -1.20389 1.08309
lowerneck -1.17952 -11.7435 -9.23343
upperneck 17.9505 -18.4266 14.796
head 7.97454 -8.55539 4.75273
rclavicle 1.99282e-014 -5.56597e-015
rhumerus -10.9688 74.7969 -109.569
rradius 125.865
rwrist 17.4477
rhand -25.4272 -56.3619
rfingers 7.12502
rthumb 1.09894 -446.339
lclavicle 1.99282e-014 -5.56597e-015
lhumerus -106.89 -112.213 203.142
lradius 96.5693
lwrist 49.4187
lhand 25.8505 -8.54009
lfingers 7.12502
lthumb 49.9408 12.7137
rfemur -7.54358 18.485 27.3352
rtibia 13.4605
rfoot -14.1741 -15.9501
rtoes -2.28955
lfemur 0.549747 -25.2244 -6.84549
ltibia 2.13819
lfoot -11.3557 34.8524
ltoes -5.01707
702
root 0.914574 17.5896 8.06258 4.83039 -2.01285 -10.2227
lowerback -1.37872 -1.79864 3.44267
upperback -3.54389 -2.32817 2.78752
thorax -2.895 -1.21634 0.96931
lowerneck -2.85058 -11.5625 -9.40571
upperneck 17.9757 -18.2763 15.6952
head 8.37457 -8.34007 4.98614
rclavicle 1.75676e-014 -2.3059e-014
rhumerus -15.4064 73.7241 -114.792
rradius 126.23
rwrist 16.7039
rhand -25.4698 -55.8925
rfingers 7.12502
rthumb 1.05782 -445.87
lclavicle 1.75676e-014 -2.3059e-014
lhumerus -98.9504 -112.807 196.008
lradius 97.0815
lwrist 50.404
lhand 25.5384 -8.77098
lfingers 7.12502
lthumb 49.655 12.631
rfemur -7.61525 18.416 27.3911
rtibia 13.3964
rfoot -14.238 -16.2341
rtoes -2.27921
lfemur 0.195925 -25.1542 -6.57205
ltibia 2.22506
lfoot -11.1251 34.4876
ltoes -5.52658
703
root 0.908147 17.5881 8.05867 4.8853 -1.67779 -10.2221
lowerback -1.2277 -1.84256 3.40147
upperback -3.75273 -2.37269 2.67921
thorax -3.19976 -1.24293 0.893339
lowerneck -4.67534 -11.3085 -9.44038
upperneck 18.1713 -17.9859 16.2901
head 8.80157 -8.04999 5.12052
rclavicle -1.26228e-014 -2.38542e-015
rhumerus -18.9502 72.6474 -119.081
rradius 126.596
rwrist 16.1362
rhand -25.5337 -55.4925
rfingers 7.12502
rthumb 0.996085 -445.47
lclavicle -1.26228e-014 -2.38542e-015
lhumerus -91.9087 -113.758 189.583
lradius 97.6372
lwrist 51.4486
lhand 25.6321 -8.81819
lfingers 7.12502
lthumb 49.7408 12.5396
rfemur -7.64516 18.3195 27.3937
rtibia 13.3159
rfoot -14.2727 -16.4389
rtoes -2.25975
lfemur -0.0363464 -25.1653 -6.43456
ltibia 2.26758
lfoot -11.1168 34.2194
ltoes -5.54213
704
root 0.902084 17.5868 8.05568 4.89724 -1.45137 -10.1726
lowerback -1.08224 -1.83941 3.26876
upperback -3.91273 -2.35698 2.62462
thorax -3.44417 -1.23489 0.92093
lowerneck -6.68375 -11.1119 -8.86491
upperneck 18.429 -17.6643 16.0722
head 9.14167 -7.75019 4.88834
rclavicle -2.38045e-014 1.90833e-014
rhumerus -21.2909 71.5127 -121.898
rradius 126.967
rwrist 15.7723
rhand -25.5382 -54.9523
rfingers 7.12502
rthumb 0.991797 -444.93
lclavicle -2.38045e-014 1.90833e-014
lhumerus -86.0356 -114.852 184.528
lradius 98.1919
lwrist 52.9027
lhand 26.1451 -8.0417
lfingers 7.12502
lthumb 50.2104 13.0699
rfemur -7.6522 18.2786 27.3551
rtibia 13.2957
rfoot -14.3092 -16.61
rtoes -2.20776
lfemur -0.137014 -25.3101 -6.43534
ltibia 2.27346
lfoot -11.2227 34.1653
ltoes -5.47344
705
root 0.896223 17.5857 8.05073 4.9431 -1.31623 -10.1574
lowerback -0.958764 -1.78562 3.34982
upperback -4.06554 -2.2757 2.47938
thorax -3.68135 -1.20219 0.733636
lowerneck -8.70099 -10.9243 -8.59151
upperneck 18.7414 -17.4019 16.1052
head 9.57294 -7.47557 4.78868
rclavicle 8.15017e-015 -3.65764e-014
rhumerus -22.5388 70.3556 -123.611
rradius 127.271
rwrist 15.5281
rhand -25.6294 -54.4804
rfingers 7.12502
rthumb 0.903724 -444.458
lclavicle 8.15017e-015 -3.65764e-014
lhumerus -81.0926 -115.749 180.357
lradius 98.6864
lwrist 54.3777
lhand 26.5859 -6.88775
lfingers 7.12502
lthumb 50.6131 14.007
rfemur -7.75568 18.2669 27.3359
rtibia 13.3622
rfoot -14.3657 -16.737
rtoes -2.18737
lfemur -0.259938 -25.4802 -6.38798
ltibia 2.28415
lfoot -11.2552 34.2478
ltoes -5.68964
